<svg width="158" height="40" viewBox="0 0 158 40" fill="none" xmlns="http://www.w3.org/2000/svg">
    <ellipse cx="20.0183" cy="20.0764" rx="18.7712" ry="18.7712" fill="#ECA73F"/>
    <path d="M26.5863 23.3041C25.3385 25.855 22.7926 27.5863 19.6931 27.3404C16.5032 27.0843 13.7962 24.5847 13.2427 21.3679C12.4779 16.9218 15.7484 12.947 20.0252 12.7933C22.8831 12.6909 25.3083 14.3198 26.5461 16.7477H32.2619C30.8128 11.3079 26.0429 7.34331 20.3271 7.33306C13.5849 7.31257 7.90931 12.9368 7.76842 19.7903C7.61748 27.1663 13.5949 33.0773 20.7397 32.8109C26.3851 32.5958 30.9034 28.6005 32.272 23.3041H26.5863Z" fill="#1E293E"/>
    <path d="M74.8401 20.6253L73.8456 17.7396H67.4531L66.4586 20.6253H62.303C62.25 20.6253 62.2136 20.5718 62.2332 20.5224L68.6021 4.45382C68.6248 4.39652 68.6802 4.35889 68.7418 4.35889H72.55C72.6117 4.35889 72.6671 4.39652 72.6898 4.45382L79.0587 20.5224C79.0783 20.5718 79.0419 20.6253 78.9888 20.6253H74.8401ZM72.5356 14.3093L70.6562 9.25923L68.7632 14.3093H72.5356Z" fill="white"/>
    <path d="M85.9033 21.0651C85.1403 21.0651 84.3842 20.9686 83.6698 20.7825C82.9553 20.5963 82.3519 20.3688 81.8802 20.1068C81.4224 19.8518 81.0131 19.5898 80.6594 19.3209C80.2987 19.0451 80.042 18.8176 79.8756 18.6177L79.4981 18.2132C79.4611 18.1736 79.4623 18.1117 79.5009 18.0736L81.9287 15.6739L82.1438 15.9152C82.2409 16.0324 82.3865 16.1772 82.5669 16.3564C82.6779 16.4667 82.9761 16.6805 83.753 17.0596C84.3634 17.3561 85.0085 17.5078 85.6675 17.5078C86.4166 17.5078 86.9993 17.3354 87.4085 17.0045C87.8039 16.6805 87.9912 16.2737 87.9912 15.7773C87.9912 15.3568 87.7761 15.019 87.3322 14.7501C86.8189 14.4399 86.1808 14.1779 85.4386 13.9711C84.6547 13.7505 83.8709 13.4885 83.0941 13.192C82.2756 12.8818 81.575 12.3578 80.9993 11.634C80.4166 10.9032 80.1183 9.97248 80.1183 8.86942C80.1183 7.50438 80.6733 6.31859 81.7761 5.35341C82.8652 4.40202 84.2871 3.91943 86.0143 3.91943C86.6871 3.91943 87.353 4.00216 87.9842 4.15383C88.6154 4.3124 89.1426 4.49854 89.5518 4.71226C89.9542 4.91908 90.3079 5.13969 90.6131 5.35341C90.9322 5.58092 91.1542 5.78085 91.2998 5.9532L91.5808 6.26348C91.6336 6.32178 91.6325 6.41092 91.5783 6.46794L89.1981 8.97283L88.9761 8.71775C88.8929 8.62123 88.775 8.50403 88.6224 8.35925C88.5253 8.26963 88.2894 8.10417 87.6929 7.80772C87.2282 7.58022 86.7357 7.46301 86.2432 7.46301C85.6675 7.46301 85.2027 7.60779 84.8628 7.89045C84.5368 8.16622 84.3773 8.48335 84.3773 8.86252C84.3773 9.28306 84.5923 9.61398 85.0362 9.88285C85.5495 10.1862 86.1808 10.4551 86.923 10.6688C87.6929 10.8894 88.4836 11.1514 89.2605 11.4547C90.0859 11.765 90.7935 12.2889 91.3692 13.0128C91.9518 13.7436 92.2501 14.6743 92.2501 15.7773C92.2501 17.3285 91.6744 18.6177 90.5368 19.6036C89.4201 20.5688 87.8594 21.0651 85.9033 21.0651Z" fill="white"/>
    <path d="M97.8455 4.35889H94.0576C93.9745 4.35889 93.9072 4.42619 93.9072 4.50922V20.475C93.9072 20.558 93.9745 20.6253 94.0576 20.6253H97.8455C97.9286 20.6253 97.9959 20.558 97.9959 20.475V4.50922C97.9959 4.42619 97.9286 4.35889 97.8455 4.35889Z" fill="white"/>
    <path d="M111.724 20.6253L104.345 11.2466V20.475C104.345 20.558 104.277 20.6253 104.194 20.6253H100.467C100.384 20.6253 100.316 20.558 100.316 20.475V4.50922C100.316 4.42619 100.384 4.35889 100.467 4.35889H103.657C103.703 4.35889 103.746 4.38004 103.775 4.41629L111.116 13.7512V4.50922C111.116 4.42619 111.184 4.35889 111.267 4.35889H114.974C115.057 4.35889 115.124 4.42619 115.124 4.50922V20.475C115.124 20.558 115.057 20.6253 114.974 20.6253H111.724Z" fill="white"/>
    <path d="M45.7275 33.1552V23.7783C45.7275 23.7368 45.7612 23.7031 45.8027 23.7031H50.0025C51.2753 23.7031 52.3453 24.1059 53.1845 24.8974C54.0307 25.6959 54.4574 26.6958 54.4574 27.8693C54.4574 29.0427 54.0307 30.0426 53.1915 30.8411C52.3523 31.6327 51.2823 32.0354 50.0094 32.0354H48.7208V35.896H45.8027C45.7612 35.896 45.7275 35.8624 45.7275 35.8208V33.1552ZM49.9185 29.3205C50.3661 29.3205 50.7298 29.1816 51.0305 28.8969C51.3242 28.6192 51.4711 28.2789 51.4711 27.8693C51.4711 27.4596 51.3312 27.1194 51.0305 26.8347C50.7298 26.55 50.3731 26.4111 49.9185 26.4111H48.7208V29.3135H49.9185V29.3205Z" fill="white"/>
    <path d="M74.8912 35.9029L72.6131 31.7924H71.7038V35.8278C71.7038 35.8693 71.6701 35.9029 71.6286 35.9029H68.7881C68.7465 35.9029 68.7129 35.8693 68.7129 35.8278V23.7783C68.7129 23.7368 68.7465 23.7031 68.7881 23.7031H73.249C74.4789 23.7031 75.5062 24.0989 76.3098 24.8835C77.1204 25.6682 77.5257 26.6472 77.5257 27.7859C77.5257 28.2789 77.4489 28.7511 77.2881 29.1816C77.1344 29.6121 76.9457 29.9662 76.7291 30.237C76.5194 30.5009 76.3028 30.7231 76.0862 30.9175C75.8626 31.1119 75.6669 31.2438 75.4992 31.3202L78.0418 35.7906C78.0703 35.8407 78.0342 35.9029 77.9765 35.9029H74.8912ZM73.1722 29.0774C73.5775 29.0774 73.9059 28.9525 74.1645 28.7025C74.423 28.4525 74.5558 28.1539 74.5558 27.7859C74.5558 27.3832 74.43 27.0638 74.1645 26.8069C73.8989 26.55 73.5775 26.4181 73.1722 26.4181H71.7859C71.7444 26.4181 71.7108 26.4517 71.7108 26.4932V29.0023C71.7108 29.0438 71.7444 29.0774 71.7859 29.0774H73.1722Z" fill="white"/>
    <path d="M81.2176 35.9029V26.4181H78.3623C78.3208 26.4181 78.2871 26.3844 78.2871 26.3429V23.7783C78.2871 23.7368 78.3208 23.7031 78.3623 23.7031H87.0523C87.0938 23.7031 87.1274 23.7368 87.1274 23.7783V26.3429C87.1274 26.3844 87.0938 26.4181 87.0523 26.4181H84.204V35.9029H81.2176Z" fill="white"/>
    <path d="M93.5241 36.2327C91.9988 36.2327 90.7103 35.7225 89.6934 34.7093C88.6765 33.703 88.1611 32.4312 88.1611 30.9357V23.7783C88.1611 23.7368 88.1948 23.7031 88.2363 23.7031H91.06C91.1015 23.7031 91.1351 23.7368 91.1351 23.7783V30.9357C91.1351 31.6695 91.365 32.2635 91.8386 32.7666C92.3122 33.2628 92.8624 33.5004 93.5241 33.5004C94.1857 33.5004 94.7359 33.2628 95.2026 32.7666C95.6762 32.2705 95.906 31.6765 95.906 30.9357V23.7783C95.906 23.7368 95.9397 23.7031 95.9812 23.7031H98.8049C98.8464 23.7031 98.88 23.7368 98.88 23.7783V30.9357C98.88 32.4312 98.3646 33.703 97.3478 34.7093C96.3379 35.7225 95.0494 36.2327 93.5241 36.2327Z" fill="white"/>
    <path d="M101.849 34.3646C103.13 35.6054 104.717 36.2328 106.578 36.2328C107.221 36.2328 107.858 36.1491 108.467 35.9748C109.068 35.8076 109.572 35.6193 109.949 35.4102C110.32 35.2081 110.684 34.9641 111.02 34.6992C111.362 34.4274 111.579 34.2391 111.684 34.1206L111.945 33.8283C111.957 33.8146 111.964 33.7968 111.964 33.7783V29.2048C111.964 29.1633 111.93 29.1296 111.889 29.1296H106.865V31.43H108.977V32.6986L108.795 32.852C108.641 32.9844 108.362 33.1308 107.956 33.2772C107.543 33.4236 107.082 33.5003 106.585 33.5003C105.529 33.5003 104.675 33.1587 103.969 32.4547C103.262 31.7506 102.92 30.9002 102.92 29.8476C102.92 28.7951 103.262 27.9446 103.969 27.2406C104.675 26.5366 105.529 26.195 106.585 26.195C106.963 26.195 107.333 26.2508 107.697 26.3693C108.061 26.4878 108.362 26.6202 108.578 26.7526C108.795 26.8851 109.005 27.0454 109.194 27.2266C109.432 27.4497 109.523 27.5543 109.558 27.6031L109.698 27.7913L109.851 28.0004L111.735 26.1229C111.762 26.0963 111.765 26.0541 111.742 26.0242L111.474 25.6722C111.334 25.4979 111.132 25.2958 110.838 25.0518C110.551 24.8218 110.222 24.5778 109.858 24.3478C109.481 24.1108 108.998 23.9016 108.418 23.7343C107.837 23.567 107.214 23.4834 106.578 23.4834C104.717 23.4834 103.13 24.1108 101.849 25.3515C100.569 26.5923 99.9189 28.105 99.9189 29.8546C99.9189 31.6042 100.569 33.1238 101.849 34.3646Z" fill="white"/>
    <path d="M125.611 35.9029C125.556 35.9029 125.511 35.8581 125.511 35.8027V23.7783C125.511 23.7368 125.544 23.7031 125.586 23.7031H128.438C128.479 23.7031 128.513 23.7368 128.513 23.7783V33.188H133.919C133.975 33.188 134.02 33.2329 134.02 33.2882V35.8027C134.02 35.8581 133.975 35.9029 133.919 35.9029H125.611Z" fill="white"/>
    <path d="M61.4083 36.2328C57.8741 36.2328 54.999 33.3732 54.999 29.8581C54.999 26.3429 57.8741 23.4834 61.4083 23.4834C64.9424 23.4834 67.8175 26.3429 67.8175 29.8581C67.8175 33.3732 64.9424 36.2328 61.4083 36.2328ZM61.4083 26.2034C59.3887 26.2034 57.7408 27.8425 57.7408 29.8511C57.7408 31.8598 59.3887 33.4988 61.4083 33.4988C63.4278 33.4988 65.0757 31.8598 65.0757 29.8511C65.0757 27.8425 63.4348 26.2034 61.4083 26.2034Z" fill="white"/>
    <path d="M125.457 21.0651C120.734 21.0651 116.893 17.2198 116.893 12.4923C116.893 7.76481 120.734 3.91943 125.457 3.91943C130.179 3.91943 134.021 7.76481 134.021 12.4923C134.021 17.2198 130.179 21.0651 125.457 21.0651ZM125.457 7.59253C122.758 7.59253 120.562 9.79087 120.562 12.4923C120.562 15.1937 122.758 17.392 125.457 17.392C128.155 17.392 130.351 15.1937 130.351 12.4923C130.351 9.79087 128.162 7.59253 125.457 7.59253Z" fill="white"/>
    <path d="M58.6272 14.6642C57.772 16.3803 56.027 17.545 53.9026 17.3796C51.7162 17.2073 49.8609 15.5257 49.4815 13.3617C48.9573 10.3707 51.1989 7.69665 54.1302 7.59327C56.0891 7.52436 57.7513 8.62015 58.5996 10.2535H62.5172C61.524 6.59397 58.2548 3.92685 54.3372 3.91996C49.716 3.90618 45.826 7.68976 45.7295 12.3004C45.626 17.2624 49.7229 21.239 54.6199 21.0598C58.4893 20.9151 61.5861 18.2273 62.5241 14.6642H58.6272Z" fill="white"/>
    <path d="M121.615 35.9029L120.866 33.7366H116.02L115.263 35.9029H112.03C112.004 35.9029 111.986 35.876 111.996 35.8513L116.899 23.7501C116.911 23.7217 116.938 23.7031 116.969 23.7031H119.909C119.94 23.7031 119.968 23.7218 119.979 23.7503L124.828 35.8514C124.838 35.8761 124.819 35.9029 124.793 35.9029H121.615ZM119.868 31.1605L118.446 27.3763L117.01 31.1605H119.868Z" fill="white"/>
    <path d="M139.875 33.1605V23.897C139.875 23.7899 139.962 23.7031 140.069 23.7031H144.152C145.426 23.7031 146.496 24.1061 147.336 24.8981C148.183 25.697 148.61 26.6975 148.61 27.8716C148.61 29.0457 148.183 30.0461 147.343 30.8451C146.503 31.6371 145.433 32.04 144.159 32.04H142.87V35.9028H140.069C139.962 35.9028 139.875 35.816 139.875 35.709V33.1605ZM144.068 29.3236C144.516 29.3236 144.88 29.1846 145.181 28.8998C145.475 28.6219 145.622 28.2815 145.622 27.8716C145.622 27.4617 145.482 27.1213 145.181 26.8364C144.88 26.5516 144.523 26.4126 144.068 26.4126H142.87V29.3166H144.068V29.3236Z" fill="white"/>
    <path d="M151.99 35.9097V26.4196H149.251C149.144 26.4196 149.058 26.3328 149.058 26.2257V23.897C149.058 23.7899 149.144 23.7031 149.251 23.7031H157.709C157.816 23.7031 157.903 23.7899 157.903 23.897V26.2257C157.903 26.3328 157.816 26.4196 157.709 26.4196H154.978V35.9097H151.99Z" fill="white"/>
    <ellipse cx="136.947" cy="33.9604" rx="1.95287" ry="1.94234" fill="white"/>
</svg>
