<svg width="112" height="35" viewBox="0 0 112 35" fill="none" xmlns="http://www.w3.org/2000/svg">
<path d="M67.4094 21.6477C67.4094 30.1094 63.1013 34.3394 54.485 34.3394C50.8091 34.3394 47.6764 33.7794 45.0886 32.6579V0.801514H53.6461V11.435C54.6168 11.0431 55.7334 10.8462 56.9979 10.8462C60.1449 10.8462 62.6667 11.7998 64.5634 13.7036C66.4602 15.609 67.4076 18.2576 67.4076 21.646L67.4094 21.6477ZM58.8519 22.3621C58.8519 18.748 57.6302 16.941 55.1902 16.941C54.631 16.941 54.1163 17.0394 53.6461 17.2345V27.868C54.0575 27.98 54.542 28.036 55.1012 28.036C56.3372 28.036 57.2686 27.5252 57.9027 26.5021C58.5349 25.479 58.8501 24.0995 58.8501 22.3621H58.8519Z" fill="white"/>
<path d="M16.6288 33.7966L0 33.7915L5.2859 3.60303L14.1782 3.60642L10.1034 26.8722L17.8399 26.8756L16.6271 33.7966H16.6288Z" fill="white"/>
<path d="M41.5285 13.7901C39.9666 11.7896 37.3931 10.7869 33.8062 10.7869C32.3387 10.7869 30.9656 10.9599 29.6886 11.3078C29.5248 11.7387 29.5782 12.1816 29.6388 12.6584C29.7136 13.2387 29.7955 13.8919 29.5729 14.5655C28.9638 16.4065 27.2968 17.5925 25.3199 17.5925C24.1766 17.5925 23.1294 17.1972 22.3529 16.4964C21.1329 18.2237 20.3261 20.236 19.9201 22.5419C19.3234 25.9609 19.92 28.7825 21.7081 31.007C23.4962 33.2314 26.4669 34.3428 30.6147 34.3428C34.6183 34.3462 38.0039 33.7913 40.7787 32.6783L39.5124 26.7142C37.3058 27.6305 34.9425 28.0886 32.4224 28.0886C29.726 28.0886 28.1891 27.2945 27.8151 25.7114L42.5205 24.0045C42.6718 23.4802 42.8375 22.7014 43.0173 21.6715C43.5837 18.4222 43.0922 15.794 41.5302 13.7901H41.5285ZM34.9852 20.0443L28.0519 20.7926C28.344 19.2926 28.8979 18.1932 29.7171 17.4992C30.5346 16.8069 31.4927 16.4574 32.5898 16.4574C33.5391 16.4574 34.2247 16.7713 34.6486 17.3974C35.0725 18.0235 35.1865 18.9041 34.9852 20.0443Z" fill="white"/>
<path d="M33.0493 8.18751C34.9371 7.59534 36.515 6.97773 38.5525 5.49816C40.004 4.44279 40.8998 2.52547 41.3432 0.586092C41.3682 0.450352 41.3183 0.33667 41.2595 0.33667C41.2328 0.33667 41.2025 0.362119 41.1794 0.424899C41.1794 0.424899 39.8882 4.93145 30.7162 5.61694C30.2015 5.65427 27.6637 5.83412 26.2905 6.28885C23.4179 7.23903 19.8809 9.66198 22.5185 15.1493C23.1222 16.1164 24.2139 16.6169 25.3199 16.6169C26.6824 16.6169 28.0697 15.8568 28.5933 14.2737C29.1971 12.4497 26.5345 10.21 33.0511 8.1892L33.0493 8.18751Z" fill="#F2A241"/>
<path d="M90.6029 32.658C88.0454 33.7796 84.5886 34.3395 80.2359 34.3395C76.5012 34.3395 73.7372 33.6387 71.942 32.2372C70.1485 30.8374 69.2509 28.5807 69.2509 25.4706V11.1399H77.8084V25.681C77.8084 27.0537 78.617 27.7408 80.2341 27.7408C81.0569 27.7408 81.6607 27.6713 82.0436 27.5305V11.1399H90.6011V32.658H90.6029Z" fill="white"/>
<path d="M101.298 33.793H92.7401V0.801514H101.298V33.793Z" fill="white"/>
<path d="M111.994 33.793H103.437V0.801514H111.994V33.793Z" fill="white"/>
</svg>
